<svg xmlns="http://www.w3.org/2000/svg" version="1.1" xmlns:xlink="http://www.w3.org/1999/xlink" width="200" height="200"><svg xmlns="http://www.w3.org/2000/svg" version="1.1" xmlns:xlink="http://www.w3.org/1999/xlink" width="200" height="200"><svg xmlns="http://www.w3.org/2000/svg" version="1.1" xmlns:xlink="http://www.w3.org/1999/xlink" viewBox="0 0 200 200"><rect width="200" height="200" fill="url('#gradient')"></rect><defs><linearGradient id="gradient" gradientTransform="rotate(45 0.5 0.5)"><stop offset="0%" stop-color="#ebe67e"></stop><stop offset="100%" stop-color="#b7a33e"></stop></linearGradient></defs><g><g fill="#191718" transform="matrix(3.2278880029668087,0,0,3.2278880029668087,12.732917093543207,119.06387906292916)" stroke="#ffffff" stroke-width="0.5"><path d="M13.13-7.47L13.13-6.82Q13.13-4.84 12.48-3.37Q11.83-1.90 10.67-1.02L10.67-1.02L12.97 0.80L10.85 2.60L7.79 0.14Q7.36 0.20 6.93 0.20L6.93 0.20Q5.12 0.20 3.71-0.64Q2.30-1.48 1.52-3.05Q0.73-4.61 0.70-6.64L0.70-6.64L0.70-7.39Q0.70-9.49 1.47-11.08Q2.24-12.68 3.66-13.54Q5.08-14.41 6.91-14.41L6.91-14.41Q8.72-14.41 10.14-13.55Q11.55-12.70 12.34-11.11Q13.13-9.52 13.13-7.47L13.13-7.47ZM9.65-6.76L9.65-7.41Q9.65-9.53 8.94-10.63Q8.23-11.73 6.91-11.73L6.91-11.73Q5.56-11.73 4.87-10.64Q4.19-9.56 4.18-7.47L4.18-7.47L4.18-6.82Q4.18-4.72 4.87-3.60Q5.57-2.48 6.93-2.48L6.93-2.48Q8.24-2.48 8.94-3.58Q9.64-4.69 9.65-6.76L9.65-6.76ZM21.12 0L21.03-1.14Q19.98 0.20 18.20 0.20L18.20 0.20Q16.46 0.20 15.57-0.82Q14.68-1.83 14.68-3.72L14.68-3.72L14.68-10.57L17.97-10.57L17.97-3.70Q17.97-2.34 19.29-2.34L19.29-2.34Q20.42-2.34 20.90-3.15L20.90-3.15L20.90-10.57L24.21-10.57L24.21 0L21.12 0ZM32.46-10.64L32.40-7.59L31.32-7.67Q29.77-7.67 29.33-6.69L29.33-6.69L29.33 0L26.04 0L26.04-10.57L29.12-10.57L29.23-9.21Q30.06-10.76 31.54-10.76L31.54-10.76Q32.07-10.76 32.46-10.64L32.46-10.64ZM42.54 0L39.25 0Q39.07-0.32 38.94-0.95L38.94-0.95Q38.03 0.20 36.40 0.20L36.40 0.20Q34.90 0.20 33.86-0.71Q32.81-1.61 32.81-2.98L32.81-2.98Q32.81-4.70 34.08-5.58Q35.35-6.46 37.77-6.46L37.77-6.46L38.79-6.46L38.79-7.01Q38.79-8.47 37.53-8.47L37.53-8.47Q36.36-8.47 36.36-7.31L36.36-7.31L33.07-7.31Q33.07-8.85 34.37-9.80Q35.67-10.76 37.70-10.76Q39.72-10.76 40.89-9.78Q42.06-8.79 42.09-7.07L42.09-7.07L42.09-2.39Q42.11-0.94 42.54-0.17L42.54-0.17L42.54 0ZM37.19-2.15L37.19-2.15Q37.80-2.15 38.21-2.41Q38.61-2.68 38.79-3.01L38.79-3.01L38.79-4.70L37.83-4.70Q36.11-4.70 36.11-3.15L36.11-3.15Q36.11-2.71 36.42-2.43Q36.72-2.15 37.19-2.15ZM43.85-10.57L46.93-10.57L47.04-9.33Q48.13-10.76 50.06-10.76L50.06-10.76Q51.71-10.76 52.52-9.78Q53.34-8.79 53.37-6.81L53.37-6.81L53.37 0L50.07 0L50.07-6.67Q50.07-7.47 49.75-7.85Q49.42-8.22 48.57-8.22L48.57-8.22Q47.61-8.22 47.14-7.46L47.14-7.46L47.14 0L43.85 0L43.85-10.57Z"></path></g></g></svg></svg><style>@media (prefers-color-scheme: light) { :root { filter: none; } }
@media (prefers-color-scheme: dark) { :root { filter: none; } }
</style></svg>